<svg width="57" height="50" viewBox="0 0 57 50" fill="none" xmlns="http://www.w3.org/2000/svg">
<g filter="url(#filter0_d_263_55059)">
<mask id="mask0_263_55059" style="mask-type:alpha" maskUnits="userSpaceOnUse" x="10" y="1" width="53" height="51">
<path d="M46.6157 6.46366C48.0738 8.78691 51.1373 17.7925 62.4924 22.7932C63.6998 23.2384 58.5457 48.5794 29.8613 51.7896C7.74542 54.2645 9.40059 5.5955 10.6391 5.94504C22.7649 8.57378 30.5366 3.08873 33.0818 2.06626L34.2584 1.44402C35.309 0.963353 45.8138 5.18599 46.5975 6.43467L46.6157 6.46366Z" fill="#C5C5C5"/>
</mask>
<g mask="url(#mask0_263_55059)">
<path d="M36.8799 3.04284C38.7463 5.51147 42.4493 13.2571 56.2181 19.0511C57.6771 19.5784 52.4207 50.1752 19.6454 48.5624C-6.79425 27.355 4.55905 3.84219 6.04934 4.27318C20.5942 7.67888 29.4971 2.50623 32.4581 1.6061L33.8181 1.03654C35.0369 0.604855 35.8536 1.68522 36.8566 3.01203L36.8799 3.04284Z" fill="#CECECE"/>
</g>
<path d="M36.7498 3.25726C38.2079 5.58051 41.2714 14.5861 52.6265 19.5868C53.8339 20.032 48.6798 45.373 19.9954 48.5832C-1.32386 29.1258 9.40144 5.59499 10.6399 5.94453C22.7657 8.57328 30.5375 3.08823 33.0827 2.06575L34.2592 1.44351C35.3099 0.962845 35.948 1.97959 36.7316 3.22827L36.7498 3.25726Z" fill="white"/>
<mask id="mask1_263_55059" style="mask-type:alpha" maskUnits="userSpaceOnUse" x="6" y="1" width="47" height="48">
<path d="M36.7498 3.25726C38.2079 5.58051 41.2714 14.5861 52.6265 19.5868C53.8339 20.032 48.6798 45.373 19.9954 48.5832C-1.32386 29.1258 9.40144 5.59499 10.6399 5.94453C22.7657 8.57328 30.5375 3.08823 33.0827 2.06575L34.2592 1.44351C35.3099 0.962845 35.948 1.97959 36.7316 3.22827L36.7498 3.25726Z" fill="white"/>
</mask>
<g mask="url(#mask1_263_55059)">
<path d="M52.6806 17.1378C36.9322 15.2579 16.0892 35.6596 7.6363 46.0955C10.4115 47.7352 16.2659 51.2355 17.4823 52.1194C19.0028 53.2242 22.0601 53.3014 27.0888 53.7901C32.1174 54.2789 38.1713 49.2984 45.902 44.7101C53.6328 40.1219 59.851 29.5453 61.3122 25.9737C62.7734 22.4022 72.3661 19.4877 52.6806 17.1378Z" fill="black" fill-opacity="0.05"/>
</g>
<g filter="url(#filter1_d_263_55059)">
<path fill-rule="evenodd" clip-rule="evenodd" d="M36.1072 28.1198L34.1092 34.269C33.1896 37.0991 30.2651 38.6854 27.577 37.812L20.1141 35.3871C17.426 34.5137 15.9923 31.5114 16.9119 28.6813L18.9099 22.532C19.406 21.0051 20.4858 19.8403 21.7972 19.2284C21.8138 19.1439 21.8739 18.9302 22.0308 18.4473C23.3488 14.3908 27.5407 12.1172 31.3936 13.3691C35.2464 14.6209 37.3014 18.9243 35.9833 22.9807C35.8264 23.4636 35.7108 23.7457 35.7108 23.7457C36.414 25.0122 36.6039 26.5911 36.1072 28.1198ZM24.8534 18.8686C24.8935 18.7454 24.9372 18.6258 24.9844 18.5099C25.0335 18.3893 25.0864 18.2727 25.1429 18.1601C26.1557 16.1405 28.3249 15.3935 30.5056 16.102C32.6863 16.8106 34.0021 18.69 33.6344 20.9191C33.6139 21.0435 33.5881 21.1689 33.557 21.2953C33.527 21.4169 33.4921 21.5393 33.4521 21.6625L24.8534 18.8686Z" fill="#D9D9D9"/>
<path fill-rule="evenodd" clip-rule="evenodd" d="M36.1072 28.1198L34.1092 34.269C33.1896 37.0991 30.2651 38.6854 27.577 37.812L20.1141 35.3871C17.426 34.5137 15.9923 31.5114 16.9119 28.6813L18.9099 22.532C19.406 21.0051 20.4858 19.8403 21.7972 19.2284C21.8138 19.1439 21.8739 18.9302 22.0308 18.4473C23.3488 14.3908 27.5407 12.1172 31.3936 13.3691C35.2464 14.6209 37.3014 18.9243 35.9833 22.9807C35.8264 23.4636 35.7108 23.7457 35.7108 23.7457C36.414 25.0122 36.6039 26.5911 36.1072 28.1198ZM24.8534 18.8686C24.8935 18.7454 24.9372 18.6258 24.9844 18.5099C25.0335 18.3893 25.0864 18.2727 25.1429 18.1601C26.1557 16.1405 28.3249 15.3935 30.5056 16.102C32.6863 16.8106 34.0021 18.69 33.6344 20.9191C33.6139 21.0435 33.5881 21.1689 33.557 21.2953C33.527 21.4169 33.4921 21.5393 33.4521 21.6625L24.8534 18.8686Z" fill="#1AADFA"/>
</g>
</g>
<defs>
<filter id="filter0_d_263_55059" x="-24.5867" y="-24.1766" width="99.073" height="99.073" filterUnits="userSpaceOnUse" color-interpolation-filters="sRGB">
<feFlood flood-opacity="0" result="BackgroundImageFix"/>
<feColorMatrix in="SourceAlpha" type="matrix" values="0 0 0 0 0 0 0 0 0 0 0 0 0 0 0 0 0 0 127 0" result="hardAlpha"/>
<feOffset dx="-2.23529"/>
<feGaussianBlur stdDeviation="2.23529"/>
<feComposite in2="hardAlpha" operator="out"/>
<feColorMatrix type="matrix" values="0 0 0 0 0 0 0 0 0 0 0 0 0 0 0 0 0 0 0.04 0"/>
<feBlend mode="normal" in2="BackgroundImageFix" result="effect1_dropShadow_263_55059"/>
<feBlend mode="normal" in="SourceGraphic" in2="effect1_dropShadow_263_55059" result="shape"/>
</filter>
<filter id="filter1_d_263_55059" x="16.6338" y="13.0254" width="21.8975" height="25.0264" filterUnits="userSpaceOnUse" color-interpolation-filters="sRGB">
<feFlood flood-opacity="0" result="BackgroundImageFix"/>
<feColorMatrix in="SourceAlpha" type="matrix" values="0 0 0 0 0 0 0 0 0 0 0 0 0 0 0 0 0 0 127 0" result="hardAlpha"/>
<feOffset dx="2.14553"/>
<feComposite in2="hardAlpha" operator="out"/>
<feColorMatrix type="matrix" values="0 0 0 0 0 0 0 0 0 0.371875 0 0 0 0 0.566667 0 0 0 1 0"/>
<feBlend mode="normal" in2="BackgroundImageFix" result="effect1_dropShadow_263_55059"/>
<feBlend mode="normal" in="SourceGraphic" in2="effect1_dropShadow_263_55059" result="shape"/>
</filter>
</defs>
</svg>
