<svg width="24" height="20" viewBox="0 0 24 20" fill="none" xmlns="http://www.w3.org/2000/svg">
<path id="Vector" d="M3.98057 6.223C3.04503 7.32718 2.34839 8.6132 1.93457 10C3.22657 14.338 7.24457 17.5 12.0006 17.5C12.9936 17.5 13.9536 17.362 14.8636 17.105M6.22857 4.228C7.94119 3.09781 9.94865 2.49682 12.0006 2.5C16.7566 2.5 20.7736 5.662 22.0656 9.998C21.3575 12.3673 19.8375 14.4115 17.7726 15.772M6.22857 4.228L3.00057 1M6.22857 4.228L9.87857 7.878M17.7726 15.772L21.0006 19M17.7726 15.772L14.1226 12.122C14.4012 11.8434 14.6222 11.5127 14.7729 11.1486C14.9237 10.7846 15.0013 10.3945 15.0013 10.0005C15.0013 9.6065 14.9237 9.21636 14.7729 8.85235C14.6222 8.48834 14.4012 8.1576 14.1226 7.879C13.844 7.6004 13.5132 7.3794 13.1492 7.22863C12.7852 7.07785 12.3951 7.00025 12.0011 7.00025C11.6071 7.00025 11.2169 7.07785 10.8529 7.22863C10.4889 7.3794 10.1582 7.6004 9.87957 7.879M14.1216 12.121L9.88057 7.88" stroke="#333333" stroke-width="2" stroke-linecap="round" stroke-linejoin="round"/>
</svg>
