<svg width="80" height="80" viewBox="0 0 80 80" fill="none" xmlns="http://www.w3.org/2000/svg">
<g clip-path="url(#clip0_263_54853)">
<g filter="url(#filter0_d_263_54853)">
<g filter="url(#filter1_d_263_54853)">
<path d="M67.7723 51.3901C67.4312 48.419 66.1266 45.6871 64.0235 43.54C61.9205 41.3928 59.1134 39.9269 55.9573 39.3275C52.8012 38.7281 49.4378 39.0221 46.2924 40.1725C43.1471 41.3229 40.361 43.2778 38.2866 45.7902C36.2122 48.3026 34.9425 51.2596 34.6382 54.2872C34.3339 57.3147 35.0086 60.277 36.577 62.7993C38.1454 65.3216 40.5371 67.2907 43.4496 68.4575C46.362 69.6244 49.6645 69.9366 52.9393 69.3547L53.2901 72.4106C53.3671 73.0809 54.2709 73.294 54.7892 72.764L62.3 65.0841C62.6818 64.6937 62.6149 64.1111 62.1606 63.8693L53.2217 59.1123C52.6048 58.784 51.7851 59.3033 51.8621 59.9737L52.213 63.0295C50.3171 63.3664 48.4051 63.1856 46.719 62.5101C45.0328 61.8345 43.6482 60.6945 42.7402 59.2342C41.8321 57.774 41.4415 56.059 41.6177 54.3062C41.7939 52.5533 42.5289 50.8414 43.7299 49.3869C44.9309 47.9323 46.5439 46.8005 48.3649 46.1345C50.1858 45.4685 52.1331 45.2983 53.9603 45.6453C55.7875 45.9923 57.4127 46.841 58.6302 48.0841C59.8478 49.3272 60.6031 50.9088 60.8006 52.6289C61.0011 54.3756 62.7244 55.5142 64.6496 55.1722C66.5748 54.8301 67.9729 53.1368 67.7723 51.3901Z" fill="#1AADFA"/>
<path d="M43.2404 68.9797C46.0805 70.1176 49.2696 70.4674 52.4476 70.004L52.7313 72.4748L52.7313 72.4748C52.8016 73.0874 53.2578 73.4701 53.7451 73.5849C54.2273 73.6986 54.7873 73.5704 55.1913 73.1573L62.7022 65.4774C63.3114 64.8544 63.2534 63.8137 62.4248 63.3727L53.486 58.6157C52.9679 58.3401 52.3921 58.4327 51.9807 58.6933C51.5699 58.9536 51.2347 59.4412 51.3032 60.0379L51.3032 60.0379L51.5923 62.5546C49.9684 62.7574 48.3576 62.5606 46.9282 61.9879C45.3465 61.3542 44.0589 60.2898 43.2178 58.9372C42.3771 57.5852 42.0133 55.9949 42.1774 54.3624C42.3416 52.7284 43.0283 51.12 44.1637 49.745C45.2992 48.3698 46.8282 47.2955 48.5581 46.6628C50.2879 46.0301 52.1322 45.8707 53.8553 46.1979C55.5779 46.5251 57.0969 47.3225 58.2284 48.4777C59.3589 49.632 60.0586 51.0978 60.2417 52.6931C60.4861 54.8216 62.5659 56.1137 64.748 55.726C66.9139 55.3411 68.5713 53.4176 68.3311 51.326C67.9756 48.23 66.6154 45.3823 64.4254 43.1464C62.2363 40.9114 59.323 39.3941 56.0622 38.7748C52.802 38.1557 49.3357 38.4605 46.0992 39.6442C42.8627 40.8279 39.9927 42.8404 37.8528 45.4321C35.7127 48.024 34.3948 51.0845 34.0785 54.2309C33.7621 57.3788 34.4637 60.4658 36.0994 63.0963C37.7347 65.7263 40.2234 67.771 43.2404 68.9797Z" stroke="#1AADFA" stroke-width="1.12501"/>
</g>
<g filter="url(#filter2_di_263_54853)">
<path fill-rule="evenodd" clip-rule="evenodd" d="M53.0997 53.0241L57.0243 38.3774C57.9999 34.7364 57.338 31.0556 55.4982 28.1658C55.4982 28.1658 55.7353 27.4911 56.0435 26.3409C58.6324 16.679 53.1763 6.82196 43.857 4.32487C34.5377 1.82778 24.8841 7.63614 22.2951 17.2981C21.9869 18.4485 21.8727 18.9562 21.8446 19.1565C18.8113 20.7403 16.402 23.5946 15.4275 27.2316L11.5029 41.8783C9.6967 48.6192 13.5033 55.4961 20.0051 57.2383L38.0566 62.0752C44.5584 63.8174 51.2935 59.7651 53.0997 53.0241ZM29.0563 17.965C29.1349 17.6715 29.2228 17.3861 29.3195 17.1088C29.4201 16.8206 29.5301 16.5411 29.6493 16.2706C31.7853 11.4196 36.8382 9.42108 42.1128 10.8344C47.3874 12.2477 50.764 16.505 50.1884 21.774C50.1563 22.0679 50.1119 22.365 50.0548 22.6649C49.9999 22.9533 49.9333 23.2444 49.8547 23.5379L29.0563 17.965Z" fill="white"/>
</g>
<g filter="url(#filter3_i_263_54853)">
<path d="M29.0655 38.7243C29.7563 36.1459 32.6443 34.6794 35.516 35.4489C38.3877 36.2184 40.1555 38.9323 39.4646 41.5107C39.0819 42.9391 38.025 44.0262 36.6701 44.581C36.0007 44.8551 35.4543 45.4337 35.4216 46.1563L35.2265 50.4547C35.1917 51.271 34.3428 51.8139 33.4679 51.5795L29.2244 50.4425C28.3495 50.208 27.8858 49.3134 28.2638 48.589L30.2626 44.8153C30.6059 44.1671 30.4191 43.3798 29.9672 42.802C29.0592 41.6408 28.6804 40.1615 29.0655 38.7243Z" fill="#1AADFA"/>
</g>
<path d="M34.7515 50.4331L34.7514 50.4344C34.7323 50.8835 34.2364 51.2931 33.5909 51.1202L29.3475 49.9832C28.7027 49.8104 28.4778 49.2086 28.6848 48.8101C28.685 48.8098 28.6852 48.8094 28.6854 48.809L30.6828 45.0379C31.1411 44.1725 30.8686 43.1827 30.3418 42.5091C29.5143 41.4509 29.1829 40.1232 29.5247 38.8474C30.1355 36.5679 32.7272 35.1939 35.3929 35.9082C38.0587 36.6225 39.6161 39.1082 39.0054 41.3877C38.6656 42.6557 37.7243 43.6354 36.4899 44.1409C35.7091 44.4607 34.9903 45.1702 34.9465 46.1347L34.7515 50.4331Z" stroke="#9DDDFF" stroke-width="0.951"/>
</g>
</g>
<defs>
<filter id="filter0_d_263_54853" x="2.20949" y="-2.54719" width="87.0338" height="90.695" filterUnits="userSpaceOnUse" color-interpolation-filters="sRGB">
<feFlood flood-opacity="0" result="BackgroundImageFix"/>
<feColorMatrix in="SourceAlpha" type="matrix" values="0 0 0 0 0 0 0 0 0 0 0 0 0 0 0 0 0 0 127 0" result="hardAlpha"/>
<feOffset dx="-0.649573"/>
<feGaussianBlur stdDeviation="0.649573"/>
<feComposite in2="hardAlpha" operator="out"/>
<feColorMatrix type="matrix" values="0 0 0 0 0 0 0 0 0 0 0 0 0 0 0 0 0 0 0.04 0"/>
<feBlend mode="normal" in2="BackgroundImageFix" result="effect1_dropShadow_263_54853"/>
<feBlend mode="normal" in="SourceGraphic" in2="effect1_dropShadow_263_54853" result="shape"/>
</filter>
<filter id="filter1_d_263_54853" x="33.4424" y="37.8994" width="35.4746" height="38.53" filterUnits="userSpaceOnUse" color-interpolation-filters="sRGB">
<feFlood flood-opacity="0" result="BackgroundImageFix"/>
<feColorMatrix in="SourceAlpha" type="matrix" values="0 0 0 0 0 0 0 0 0 0 0 0 0 0 0 0 0 0 127 0" result="hardAlpha"/>
<feOffset dy="2.24293"/>
<feComposite in2="hardAlpha" operator="out"/>
<feColorMatrix type="matrix" values="0 0 0 0 0 0 0 0 0 0.423529 0 0 0 0 0.647059 0 0 0 1 0"/>
<feBlend mode="normal" in2="BackgroundImageFix" result="effect1_dropShadow_263_54853"/>
<feBlend mode="normal" in="SourceGraphic" in2="effect1_dropShadow_263_54853" result="shape"/>
</filter>
<filter id="filter2_di_263_54853" x="11.0537" y="1.74609" width="50.4199" height="62.7334" filterUnits="userSpaceOnUse" color-interpolation-filters="sRGB">
<feFlood flood-opacity="0" result="BackgroundImageFix"/>
<feColorMatrix in="SourceAlpha" type="matrix" values="0 0 0 0 0 0 0 0 0 0 0 0 0 0 0 0 0 0 127 0" result="hardAlpha"/>
<feOffset dx="2"/>
<feGaussianBlur stdDeviation="1"/>
<feComposite in2="hardAlpha" operator="out"/>
<feColorMatrix type="matrix" values="0 0 0 0 0 0 0 0 0 0 0 0 0 0 0 0 0 0 0.02 0"/>
<feBlend mode="normal" in2="BackgroundImageFix" result="effect1_dropShadow_263_54853"/>
<feBlend mode="normal" in="SourceGraphic" in2="effect1_dropShadow_263_54853" result="shape"/>
<feColorMatrix in="SourceAlpha" type="matrix" values="0 0 0 0 0 0 0 0 0 0 0 0 0 0 0 0 0 0 127 0" result="hardAlpha"/>
<feOffset dx="0.4755" dy="-1.902"/>
<feComposite in2="hardAlpha" operator="arithmetic" k2="-1" k3="1"/>
<feColorMatrix type="matrix" values="0 0 0 0 0.682353 0 0 0 0 0.682353 0 0 0 0 0.682353 0 0 0 1 0"/>
<feBlend mode="normal" in2="shape" result="effect2_innerShadow_263_54853"/>
</filter>
<filter id="filter3_i_263_54853" x="28.1309" y="35.2441" width="11.4834" height="16.3906" filterUnits="userSpaceOnUse" color-interpolation-filters="sRGB">
<feFlood flood-opacity="0" result="BackgroundImageFix"/>
<feBlend mode="normal" in="SourceGraphic" in2="BackgroundImageFix" result="shape"/>
<feColorMatrix in="SourceAlpha" type="matrix" values="0 0 0 0 0 0 0 0 0 0 0 0 0 0 0 0 0 0 127 0" result="hardAlpha"/>
<feOffset dx="-0.951"/>
<feComposite in2="hardAlpha" operator="arithmetic" k2="-1" k3="1"/>
<feColorMatrix type="matrix" values="0 0 0 0 0.682353 0 0 0 0 0.682353 0 0 0 0 0.682353 0 0 0 1 0"/>
<feBlend mode="normal" in2="shape" result="effect1_innerShadow_263_54853"/>
</filter>
<clipPath id="clip0_263_54853">
<rect width="59.7607" height="76" fill="white" transform="translate(10 2)"/>
</clipPath>
</defs>
</svg>
