<svg width="24" height="18" viewBox="0 0 24 18" fill="none" xmlns="http://www.w3.org/2000/svg">
<path id="Vector (Stroke)" fill-rule="evenodd" clip-rule="evenodd" d="M12.0001 2.5C7.80355 2.5 4.24026 5.22202 2.98509 8.99841L2.98499 8.99871C2.98417 9.00117 2.98417 9.00383 2.98499 9.00629L2.03615 9.32199L2.98484 9.00584C4.24282 12.7807 7.80534 15.5 12.0001 15.5C16.1968 15.5 19.7599 12.778 21.0141 9.0018L21.0154 8.99804L21.0158 8.99834L21.0158 8.99818L21.0144 8.99416C19.7564 5.2192 16.1948 2.5 12.0001 2.5ZM1.08728 8.36729C2.60619 3.79783 6.91683 0.5 12.0001 0.5C17.0815 0.5 21.3899 3.7948 22.9118 8.36184C23.0506 8.77532 23.0499 9.22156 22.9115 9.63408C21.3932 14.2029 17.0828 17.5 12.0001 17.5C6.91893 17.5 2.60945 14.2053 1.08743 9.63816L1.08728 9.63771C0.950107 9.22545 0.950074 8.77987 1.08718 8.36759M12.0001 7C11.4697 7 10.961 7.21071 10.5859 7.58579C10.2108 7.96086 10.0001 8.46957 10.0001 9C10.0001 9.53043 10.2108 10.0391 10.5859 10.4142C10.961 10.7893 11.4697 11 12.0001 11C12.5306 11 13.0393 10.7893 13.4143 10.4142C13.7894 10.0391 14.0001 9.53043 14.0001 9C14.0001 8.46957 13.7894 7.96086 13.4143 7.58579C13.0393 7.21071 12.5306 7 12.0001 7ZM9.17171 6.17157C9.92185 5.42143 10.9393 5 12.0001 5C13.061 5 14.0784 5.42143 14.8286 6.17157C15.5787 6.92172 16.0001 7.93913 16.0001 9C16.0001 10.0609 15.5787 11.0783 14.8286 11.8284C14.0784 12.5786 13.061 13 12.0001 13C10.9393 13 9.92185 12.5786 9.17171 11.8284C8.42156 11.0783 8.00013 10.0609 8.00013 9C8.00013 7.93913 8.42156 6.92172 9.17171 6.17157Z" fill="black"/>
</svg>
