<svg width="16" height="14" viewBox="0 0 16 14" fill="none" xmlns="http://www.w3.org/2000/svg">
<path id="Vector (Stroke)" fill-rule="evenodd" clip-rule="evenodd" d="M6.05119 1.62598C6.91719 0.125974 9.0829 0.125974 9.9489 1.62598L14.8517 10.1249C15.7166 11.6247 14.6341 13.499 12.9034 13.499H3.09671C1.36566 13.499 0.282376 11.6249 1.14852 10.1247L6.05119 1.62598ZM7.35024 2.37597L2.4477 10.8744C2.15918 11.3742 2.51977 11.999 3.09671 11.999H12.9034C13.4793 11.999 13.8408 11.3745 13.5523 10.8743L8.64985 2.37597C8.36119 1.87598 7.6389 1.87598 7.35024 2.37597ZM8.00004 4.99898C8.41426 4.99898 8.75004 5.33476 8.75004 5.74898V8.24898C8.75004 8.66319 8.41426 8.99898 8.00004 8.99898C7.58583 8.99898 7.25004 8.66319 7.25004 8.24898V5.74898C7.25004 5.33476 7.58583 4.99898 8.00004 4.99898ZM7.25004 10.249C7.25004 9.83476 7.58583 9.49898 8.00004 9.49898H8.00471C8.41892 9.49898 8.75471 9.83476 8.75471 10.249V10.2543C8.75471 10.6685 8.41892 11.0043 8.00471 11.0043H8.00004C7.58583 11.0043 7.25004 10.6685 7.25004 10.2543V10.249Z" fill="black"/>
</svg>
