<svg width="312" height="61" viewBox="0 0 312 61" fill="none" xmlns="http://www.w3.org/2000/svg">
<path opacity="0.5" fill-rule="evenodd" clip-rule="evenodd" d="M116.751 6.18685C72.8225 12.602 30.9671 24.5452 0.461273 42.4415C26.4006 34.2821 71.4068 25.7564 120.692 23.2344L116.751 6.18685ZM123.913 37.1705C84.5082 35.5098 44.1945 38.604 4.41339 46.3425C35.1783 34.2721 78.5513 28.4355 121.717 27.6686L123.913 37.1705ZM290.839 11.5814C246.857 -0.824355 179.667 -3.00865 116.751 6.18685L120.692 23.2344C175.747 20.4301 236.276 25.2391 280.998 46.6958C299.725 55.6474 312.694 43.3579 310.975 30.5292L310.239 27.3433C308.92 23.6286 306.498 20.2907 303.145 17.5667C299.793 14.8426 295.591 12.7991 290.839 11.5814ZM121.717 27.6686C162.537 26.9682 203.134 30.8113 232.758 38.2474C262.382 45.6836 246.322 69.2748 221.595 57.8919C192.629 44.5768 157.889 38.7639 123.951 37.1031L121.717 27.6686Z" fill="#99D4FF"/>
</svg>
