<svg width="231" height="60" viewBox="0 0 231 60" fill="none" xmlns="http://www.w3.org/2000/svg">
<g opacity="0.5">
<path d="M91.6271 36.6597C62.022 35.2266 32.4039 38.513 3.86753 46.2713C25.0628 34.3214 56.4407 28.4586 88.5 27.5C118.821 26.6177 149.736 30.1252 172.881 37.2521C196.025 44.3791 187.443 67.5219 167.381 56.5125C143.883 43.6345 117.159 38.1193 91.6271 36.6597Z" fill="#A7FF99"/>
<path d="M81.8246 6.46784C50.0071 12.9525 20.5283 24.8317 0.362302 42.4765C18.5226 34.3735 50.84 25.8203 87.208 23.1161C127.836 20.108 173.636 24.5169 210.044 45.2787C225.286 53.9401 233.187 41.8619 230.065 29.3277L229.058 26.2164C227.542 22.5909 225.258 19.3392 222.369 16.6921C219.479 14.0451 216.055 12.0675 212.339 10.8998C177.78 -1.01642 127.393 -2.82694 81.8246 6.46784Z" fill="#A7FF99"/>
</g>
</svg>
