<svg width="128" height="38" viewBox="0 0 128 38" fill="none" xmlns="http://www.w3.org/2000/svg">
<g id="Component 104">
<path id="Vector" d="M123.028 38.0005H4.9709C2.5784 38.0005 0.639648 36.0233 0.639648 33.5834V5.06162C0.639648 2.6217 2.5784 0.644531 4.9709 0.644531H123.028C125.421 0.644531 127.36 2.6217 127.36 5.06162V33.5834C127.36 36.0233 125.421 38.0005 123.028 38.0005Z" fill="black"/>
<g id="Clip path group">
<mask id="mask0_174_12495" style="mask-type:luminance" maskUnits="userSpaceOnUse" x="0" y="0" width="128" height="38">
<g id="clip14">
<path id="Vector_2" d="M0 0H128V38H0V0Z" fill="white"/>
</g>
</mask>
<g mask="url(#mask0_174_12495)">
<g id="Group">
<path id="Vector_3" d="M4.81588 0.959385C2.68366 0.959385 0.948931 2.70899 0.948931 4.85949V33.1405C0.948931 35.291 2.68366 37.0406 4.81588 37.0406H123.184C125.316 37.0406 127.051 35.291 127.051 33.1405V4.85949C127.051 2.70899 125.316 0.959385 123.184 0.959385H4.81588ZM123.184 38H4.81588C2.15979 38 0 35.8194 0 33.1405V4.85949C0 2.18063 2.15979 0 4.81588 0H123.184C125.84 0 128 2.18063 128 4.85949V33.1405C128 35.8194 125.84 38 123.184 38Z" fill="#A7A9AB"/>
</g>
</g>
</g>
<path id="Vector_4" d="M44.2298 10.1676L43.771 8.58015C43.6585 8.18807 43.5632 7.75056 43.4767 7.3776H43.4594C43.375 7.75056 43.2863 8.19763 43.1845 8.58015L42.7344 10.1676H44.2298ZM42.5613 11.0546L42.0593 12.8811H40.96L42.8296 6.44043H44.1865L46.08 12.8811H44.9395L44.4115 11.0546" fill="white"/>
<path id="Vector_5" d="M47.942 8.37305L48.668 10.6574C48.7966 11.0559 48.8862 11.4173 48.9689 11.788H48.9965C49.0792 11.4173 49.1803 11.0652 49.2997 10.6574L50.0165 8.37305H51.1997L49.4927 12.8815H48.3831L46.7197 8.37305" fill="white"/>
<path id="Vector_6" d="M54.5105 10.3593C53.7141 10.3491 52.9543 10.5316 52.9543 11.2818C52.9543 11.7684 53.2381 11.9915 53.5951 11.9915C54.0505 11.9915 54.3731 11.6671 54.4807 11.3122C54.5105 11.221 54.5105 11.1298 54.5105 11.0385V10.3593ZM55.6066 11.586C55.6066 12.032 55.6249 12.4679 55.6798 12.7695H54.6638L54.5837 12.2246H54.5539C54.2908 12.6073 53.8239 12.8811 53.2381 12.8811C52.341 12.8811 51.8398 12.1638 51.8398 11.4136C51.8398 10.1768 52.8353 9.54065 54.4807 9.55079V9.46968C54.4807 9.14527 54.364 8.60797 53.5768 8.60797C53.1374 8.60797 52.6797 8.76004 52.3776 8.97293L52.1579 8.16191C52.4875 7.93888 53.0642 7.72852 53.769 7.72852C55.1947 7.72852 55.6066 8.72962 55.6066 9.81437" fill="white"/>
<path id="Vector_7" d="M57.6647 8.33667H58.8053V12.8811H57.6647V8.33667ZM58.2292 7.68279C57.8505 7.68279 57.5996 7.40256 57.5996 7.06628C57.5996 6.71132 57.8575 6.44043 58.2408 6.44043C58.6287 6.44043 58.8703 6.71132 58.8796 7.06628C58.8796 7.40256 58.6287 7.68279 58.2408 7.68279" fill="white"/>
<path id="Vector_8" d="M60.1602 12.8816H61.4402V5.79688H60.1602V12.8816Z" fill="white"/>
<path id="Vector_9" d="M65.3903 10.3593C64.594 10.3491 63.8342 10.5316 63.8342 11.2818C63.8342 11.7684 64.118 11.9915 64.475 11.9915C64.9326 11.9915 65.253 11.6671 65.3629 11.3122C65.3903 11.221 65.3903 11.1298 65.3903 11.0385V10.3593ZM66.4865 11.586C66.4865 12.032 66.5048 12.4679 66.5597 12.7695H65.5459L65.4636 12.2246H65.4361C65.1706 12.6073 64.7038 12.8811 64.118 12.8811C63.2232 12.8811 62.7197 12.1638 62.7197 11.4136C62.7197 10.1768 63.7175 9.54065 65.3629 9.55079V9.46968C65.3629 9.14527 65.2439 8.60797 64.4566 8.60797C64.0173 8.60797 63.5596 8.76004 63.2598 8.97293L63.0401 8.16191C63.3696 7.93888 63.944 7.72852 64.6489 7.72852C66.0746 7.72852 66.4865 8.72962 66.4865 9.81437" fill="white"/>
<path id="Vector_10" d="M69.0069 10.7999C69.0069 10.8981 69.0161 10.9963 69.0345 11.0847C69.154 11.5756 69.5491 11.9291 70.0339 11.9291C70.7415 11.9291 71.1734 11.3301 71.1734 10.3605C71.1734 9.516 70.7966 8.82864 70.043 8.82864C69.5836 8.82864 69.1631 9.18214 69.0437 9.71239C69.0253 9.80076 69.0069 9.90878 69.0069 10.0266V10.7999ZM67.8766 5.79688H69.0069V8.65189H69.0253C69.301 8.19037 69.7857 7.88842 70.4566 7.88842C71.5501 7.88842 72.329 8.85809 72.3198 10.3114C72.3198 12.0273 71.302 12.8816 70.2912 12.8816C69.7122 12.8816 69.1999 12.646 68.8783 12.0568H68.8599L68.8048 12.7736H67.8398C67.8582 12.4496 67.8766 11.9193 67.8766 11.4382" fill="white"/>
<path id="Vector_11" d="M73.5996 12.8816H74.8796V5.79688H73.5996V12.8816Z" fill="white"/>
<path id="Vector_12" d="M79.4795 9.78801C79.4895 9.33091 79.2894 8.57923 78.4714 8.57923C77.711 8.57923 77.3908 9.28012 77.3408 9.78801H79.4795ZM77.3408 10.659C77.3708 11.5529 78.0612 11.9389 78.8417 11.9389C79.4095 11.9389 79.8097 11.8475 80.1899 11.7155L80.37 12.5662C79.9498 12.7515 79.3694 12.8811 78.6716 12.8811C77.0907 12.8811 76.1602 11.8983 76.1602 10.3873C76.1602 9.01602 76.9806 7.72852 78.5415 7.72852C80.1199 7.72852 80.6402 9.04649 80.6402 10.1334C80.6402 10.367 80.6201 10.5498 80.6001 10.659" fill="white"/>
<path id="Vector_13" d="M86.0889 11.9792C86.7221 11.9792 87.1669 11.2902 87.1669 10.2896C87.1669 9.51949 86.8583 8.6278 86.098 8.6278C85.3082 8.6278 84.9905 9.48909 84.9905 10.3099C84.9905 11.2598 85.4171 11.9792 86.0776 11.9792H86.0889ZM86.0526 12.8811C84.8089 12.8811 83.8398 11.9286 83.8398 10.3403C83.8398 8.719 84.7908 7.72852 86.1252 7.72852C87.4393 7.72852 88.3198 8.75953 88.3198 10.2592C88.3198 12.0704 87.176 12.8811 86.0617 12.8811" fill="white"/>
<path id="Vector_14" d="M89.632 9.34241C89.632 8.76213 89.6169 8.27512 89.5996 7.83991H90.5218L90.5736 8.59634H90.5996C90.7896 8.20258 91.2475 7.72852 91.9472 7.72852C92.6794 7.72852 93.4396 8.29584 93.4396 9.8916V12.8811H92.377V10.0367C92.377 9.31132 92.1524 8.76213 91.5758 8.76213C91.1525 8.76213 90.8587 9.12481 90.7464 9.5082C90.7119 9.61182 90.6946 9.76725 90.6946 9.91232V12.8811H89.632" fill="white"/>
<path id="Vector_15" d="M98.8659 7.08496V8.24895H99.8403V9.10736H98.8659V11.1018C98.8659 11.6616 98.9995 11.9415 99.3896 11.9415C99.5732 11.9415 99.6734 11.9322 99.7902 11.8949L99.8069 12.7603C99.6567 12.8279 99.3813 12.8816 99.0641 12.8816C98.6823 12.8816 98.3735 12.7416 98.1816 12.5107C97.9563 12.2494 97.8561 11.8296 97.8561 11.2324V9.10736H97.2803V8.24895H97.8561V7.4022" fill="white"/>
<path id="Vector_16" d="M101.12 5.79688H102.192V8.68612H102.21C102.341 8.45677 102.524 8.26731 102.742 8.13768C102.959 8.00057 103.21 7.9208 103.48 7.9208C104.204 7.9208 104.96 8.46674 104.96 10.0223V12.8816H103.89V10.1519C103.89 9.45392 103.663 8.91546 103.071 8.91546C102.654 8.91546 102.358 9.23455 102.236 9.60349C102.201 9.71318 102.192 9.84281 102.192 9.97244V12.8816H101.12" fill="white"/>
<path id="Vector_17" d="M109.561 9.78801C109.571 9.33091 109.371 8.57923 108.55 8.57923C107.789 8.57923 107.472 9.28012 107.422 9.78801H109.561ZM107.422 10.659C107.452 11.5529 108.14 11.9389 108.921 11.9389C109.491 11.9389 109.892 11.8475 110.27 11.7155L110.452 12.5662C110.032 12.7515 109.451 12.8811 108.751 12.8811C107.171 12.8811 106.24 11.8983 106.24 10.3873C106.24 9.01602 107.061 7.72852 108.62 7.72852C110.2 7.72852 110.72 9.04649 110.72 10.1334C110.72 10.367 110.7 10.5498 110.68 10.659" fill="white"/>
<path id="Vector_18" d="M28.7322 18.746C28.7021 15.6366 31.2537 14.1227 31.3715 14.0528C29.9271 11.9254 27.6875 11.6362 26.8994 11.6128C25.0205 11.4146 23.197 12.7512 22.2402 12.7512C21.2625 12.7512 19.7857 11.6338 18.198 11.6665C16.1503 11.6991 14.2367 12.8958 13.1874 14.7502C11.0242 18.5361 12.6373 24.097 14.7127 27.1574C15.7528 28.655 16.9638 30.3298 18.5516 30.2691C20.1047 30.2038 20.6848 29.2708 22.5591 29.2708C24.4173 29.2708 24.9627 30.2691 26.5828 30.2318C28.2492 30.2038 29.2984 28.7273 30.2991 27.2134C31.5009 25.4966 31.9817 23.8054 32.0002 23.7191C31.9609 23.7051 28.7645 22.4735 28.7322 18.746Z" fill="white"/>
<path id="Vector_19" d="M25.5548 9.82171C26.4216 8.74652 27.0195 7.28121 26.8514 5.79688C25.5956 5.85396 24.0253 6.65798 23.12 7.70939C22.3205 8.6371 21.6025 10.1571 21.7898 11.5844C23.2017 11.689 24.6496 10.8803 25.5548 9.82171Z" fill="white"/>
<path id="Vector_20" d="M47.4335 24.8983L46.3439 21.5348C46.2288 21.1921 46.0128 20.3823 45.6934 19.1101H45.6558C45.529 19.657 45.3223 20.4668 45.0429 21.5348L43.972 24.8983H47.4335ZM51.2003 30.271H48.9999L47.7952 26.4873H43.6104L42.462 30.271H40.3203L44.4722 17.3896H47.032" fill="white"/>
<path id="Vector_21" d="M59.3339 25.2696C59.3339 24.3897 59.1293 23.6671 58.7203 23.0973C58.2736 22.5046 57.674 22.206 56.9217 22.206C56.4115 22.206 55.946 22.3724 55.5345 22.6984C55.1207 23.0289 54.848 23.4574 54.7187 23.9908C54.6552 24.237 54.6247 24.4399 54.6247 24.5994V26.1039C54.6247 26.7604 54.8316 27.3143 55.2453 27.7656C55.6615 28.2193 56.1999 28.4427 56.8629 28.4427C57.6435 28.4427 58.25 28.1532 58.6803 27.5696C59.1176 26.9883 59.3339 26.2224 59.3339 25.2696ZM61.4405 25.1944C61.4405 26.7285 61.0126 27.9434 60.1568 28.8324C59.3903 29.6257 58.4381 30.0201 57.3049 30.0201C56.0776 30.0201 55.1983 29.5915 54.6623 28.739H54.6247V33.4917H52.5557V23.7652C52.5557 22.8009 52.5322 21.8116 52.4805 20.795H54.2979L54.4131 22.2265H54.453C55.1419 21.1483 56.1881 20.6104 57.5917 20.6104C58.6873 20.6104 59.6066 21.0321 60.3378 21.8732C61.0713 22.7166 61.4405 23.8221 61.4405 25.1944Z" fill="white"/>
<path id="Vector_22" d="M69.5744 25.2696C69.5744 24.3897 69.3697 23.6671 68.9604 23.0973C68.5135 22.5046 67.9137 22.206 67.1609 22.206C66.6505 22.206 66.1871 22.3724 65.773 22.6984C65.3567 23.0289 65.0885 23.4574 64.9615 23.9908C64.8956 24.237 64.865 24.4399 64.865 24.5994V26.1039C64.865 26.7604 65.0697 27.3143 65.4837 27.7656C65.9001 28.2193 66.4387 28.4427 67.1045 28.4427C67.8831 28.4427 68.49 28.1532 68.9228 27.5696C69.3556 26.9883 69.5744 26.2224 69.5744 25.2696ZM71.6797 25.1944C71.6797 26.7285 71.254 27.9434 70.3977 28.8324C69.6309 29.6257 68.6805 30.0201 67.5443 30.0201C66.3188 30.0201 65.439 29.5915 64.9003 28.739H64.865V33.4917H62.795V23.7652C62.795 22.8009 62.7691 21.8116 62.7197 20.795H64.5381L64.6533 22.2265H64.6933C65.3802 21.1483 66.427 20.6104 67.8313 20.6104C68.9299 20.6104 69.8449 21.0321 70.5812 21.8732C71.3151 22.7166 71.6797 23.8221 71.6797 25.1944Z" fill="white"/>
<path id="Vector_23" d="M83.1995 26.3941C83.1995 27.5095 82.8342 28.419 82.0992 29.1227C81.2919 29.8886 80.1713 30.2715 78.7304 30.2715C77.3978 30.2715 76.329 29.9987 75.5195 29.453L75.9795 27.7009C76.8521 28.2586 77.8059 28.5363 78.8477 28.5363C79.594 28.5363 80.1758 28.3591 80.5929 28.0025C81.0078 27.6435 81.2153 27.1648 81.2153 26.5664C81.2153 26.0351 81.0462 25.5827 80.7034 25.2189C80.3607 24.8551 79.7902 24.5176 78.9942 24.2041C76.8273 23.3449 75.745 22.0883 75.745 20.4368C75.745 19.3574 76.1238 18.4718 76.8837 17.7825C77.6413 17.0931 78.6515 16.7461 79.912 16.7461C81.0394 16.7461 81.9752 16.9567 82.7215 17.3708L82.2254 19.0869C81.5287 18.6848 80.7395 18.4813 79.8579 18.4813C79.1589 18.4813 78.6154 18.6633 78.2253 19.0271C77.8961 19.3526 77.7293 19.7499 77.7293 20.2166C77.7293 20.736 77.9164 21.1644 78.2975 21.5019C78.6267 21.813 79.2265 22.1505 80.0969 22.5167C81.1612 22.9715 81.9436 23.5028 82.4464 24.1132C82.947 24.7235 83.1995 25.4846 83.1995 26.3941Z" fill="white"/>
<path id="Vector_24" d="M90.2405 22.4737H87.9245V26.9065C87.9245 28.0349 88.3332 28.598 89.153 28.598C89.5258 28.598 89.8389 28.568 90.0851 28.5057L90.1425 30.0448C89.7314 30.1971 89.1841 30.271 88.5101 30.271C87.6807 30.271 87.0306 30.0264 86.5622 29.5395C86.0961 29.0503 85.8619 28.2288 85.8619 27.0773V22.4737H84.4805V20.9507H85.8619V19.28L87.9245 18.6777V20.9507H90.2405" fill="white"/>
<path id="Vector_25" d="M98.3708 25.4221C98.3708 24.5679 98.1881 23.8377 97.8228 23.2245C97.3996 22.485 96.7892 22.1152 95.9984 22.1152C95.1822 22.1152 94.5602 22.485 94.1347 23.2245C93.7694 23.8377 93.5913 24.5819 93.5913 25.4619C93.5913 26.3162 93.7694 27.0463 94.1347 27.6572C94.574 28.3967 95.1891 28.7665 95.9822 28.7665C96.7568 28.7665 97.3672 28.3921 97.8066 27.6385C98.1835 27.0159 98.3708 26.2764 98.3708 25.4221ZM100.48 25.3566C100.48 26.7795 100.08 27.9474 99.2749 28.8625C98.4332 29.8033 97.3164 30.2714 95.9244 30.2714C94.5787 30.2714 93.5104 29.8197 92.7127 28.9186C91.9172 28.0176 91.5195 26.8802 91.5195 25.5087C91.5195 24.0717 91.9288 22.8969 92.752 21.9841C93.5728 21.0667 94.6804 20.6104 96.0724 20.6104C97.4158 20.6104 98.4979 21.062 99.3118 21.9631C100.091 22.8431 100.48 23.9711 100.48 25.3566Z" fill="white"/>
<path id="Vector_26" d="M106.88 22.6555C106.669 22.6172 106.447 22.598 106.21 22.598C105.463 22.598 104.882 22.8779 104.476 23.4352C104.123 23.9304 103.946 24.5523 103.946 25.3033V30.2714H101.82L101.837 23.7868C101.837 22.6937 101.811 21.7011 101.76 20.8041H103.612L103.69 22.6172H103.745C103.97 21.9953 104.326 21.493 104.81 21.1174C105.284 20.7802 105.796 20.6104 106.348 20.6104C106.544 20.6104 106.723 20.6247 106.88 20.6486" fill="white"/>
<path id="Vector_27" d="M113.857 24.4855C113.871 23.876 113.736 23.3462 113.454 22.9008C113.095 22.3288 112.539 22.0404 111.795 22.0404C111.116 22.0404 110.563 22.3217 110.139 22.882C109.794 23.3274 109.585 23.8619 109.526 24.4855H113.857ZM115.84 25.0201C115.84 25.3905 115.816 25.6999 115.766 25.9554H109.526C109.547 26.8721 109.85 27.573 110.43 28.056C110.955 28.4897 111.637 28.703 112.472 28.703C113.395 28.703 114.238 28.5577 114.997 28.2646L115.324 29.697C114.436 30.0768 113.39 30.2714 112.181 30.2714C110.731 30.2714 109.59 29.847 108.762 28.9984C107.936 28.1544 107.52 27.0174 107.52 25.5921C107.52 24.1925 107.903 23.0274 108.677 22.099C109.484 21.105 110.577 20.6104 111.949 20.6104C113.298 20.6104 114.323 21.105 115.016 22.099C115.567 22.8867 115.84 23.8619 115.84 25.0201Z" fill="white"/>
</g>
</svg>
