<svg width="160" height="53" viewBox="0 0 160 53" fill="none" xmlns="http://www.w3.org/2000/svg">
<g clip-path="url(#clip0_121_11698)">
<path d="M67.0091 19.2503C68.2229 20.5435 68.8193 22.2888 68.8193 24.4862V34.7687C68.8193 35.0105 68.6205 35.2103 68.3799 35.2103H64.0374C63.7968 35.2103 63.598 35.0105 63.598 34.7687V24.9383C63.598 23.1614 62.7295 22.0785 61.0971 22.0785C59.4648 22.0785 58.387 23.2981 58.387 25.3588V34.7687C58.387 35.0105 58.1882 35.2103 57.9476 35.2103H53.6052C53.3645 35.2103 53.1657 35.0105 53.1657 34.7687V24.9383C53.1657 23.1614 52.2972 22.0785 50.6649 22.0785C49.0325 22.0785 47.9548 23.2981 47.9548 25.3588V34.7687C47.9548 35.0105 47.756 35.2103 47.5153 35.2103H43.1729C42.9322 35.2103 42.7334 35.0105 42.7334 34.7687V18.1779C42.7334 17.9361 42.9322 17.7363 43.1729 17.7363H47.5153C47.756 17.7363 47.9548 17.9361 47.9548 18.1779C47.9548 18.5564 48.3942 18.7667 48.6768 18.5144C49.6185 17.6733 50.9369 17.2422 52.6216 17.2422C54.4318 17.2422 55.8444 17.8625 56.8489 19.1031C57.0163 19.3134 57.3407 19.3239 57.5186 19.1136C58.5963 17.8625 60.1554 17.2422 62.2168 17.2422C64.2781 17.2422 65.7953 17.9046 67.0196 19.2293L67.0091 19.2503Z" fill="#262761"/>
<path d="M80.738 35.7046C78.164 35.7046 75.9771 34.832 74.1982 33.0446C72.4194 31.2573 71.5195 29.0599 71.5195 26.4735C71.5195 23.8871 72.4194 21.7213 74.1982 19.9445C75.9666 18.1676 78.164 17.2529 80.738 17.2529C83.3121 17.2529 85.499 18.1571 87.2778 19.9445C89.0462 21.7213 89.9565 23.8871 89.9565 26.4735C89.9565 29.0599 89.0566 31.2573 87.2778 33.0446C85.5095 34.8215 83.3121 35.7046 80.738 35.7046ZM80.738 30.6054C81.889 30.6054 82.8203 30.2164 83.5841 29.4489C84.348 28.6814 84.7352 27.7036 84.7352 26.484C84.7352 25.2644 84.348 24.2867 83.5841 23.5191C82.8203 22.7516 81.8786 22.3626 80.738 22.3626C79.5975 22.3626 78.6558 22.7516 77.8919 23.5191C77.1281 24.2867 76.7409 25.2644 76.7409 26.484C76.7409 27.7036 77.1281 28.6814 77.8919 29.4489C78.6558 30.2164 79.5975 30.6054 80.738 30.6054Z" fill="#262761"/>
<path d="M101.247 35.7046C98.6728 35.7046 96.4858 34.832 94.707 33.0446C92.9387 31.2678 92.0283 29.0599 92.0283 26.4735C92.0283 23.8871 92.9282 21.7213 94.707 19.9445C96.4754 18.1676 98.6728 17.2529 101.247 17.2529C103.821 17.2529 106.008 18.1571 107.787 19.9445C109.555 21.7213 110.465 23.8871 110.465 26.4735C110.465 29.0599 109.565 31.2573 107.787 33.0446C106.018 34.8215 103.821 35.7046 101.247 35.7046ZM101.247 30.6054C102.398 30.6054 103.329 30.2164 104.093 29.4489C104.857 28.6814 105.244 27.7036 105.244 26.484C105.244 25.2644 104.857 24.2867 104.093 23.5191C103.329 22.7516 102.387 22.3626 101.247 22.3626C100.106 22.3626 99.1645 22.7516 98.4007 23.5191C97.6369 24.2867 97.2497 25.2644 97.2497 26.484C97.2497 27.7036 97.6369 28.6814 98.4007 29.4489C99.1645 30.2164 100.106 30.6054 101.247 30.6054Z" fill="#262761"/>
<path d="M127.866 35.2105H122.958C122.812 35.2105 122.686 35.1369 122.603 35.0212L119.861 31.1101C119.683 30.8578 119.317 30.8578 119.139 31.1101L116.398 35.0212C116.314 35.1369 116.178 35.2105 116.042 35.2105H111.134C110.779 35.2105 110.569 34.8109 110.779 34.5166L116.335 26.5892C116.44 26.442 116.44 26.2317 116.335 26.0845L110.988 18.441C110.779 18.1466 110.988 17.7471 111.344 17.7471H116.251C116.398 17.7471 116.523 17.8207 116.607 17.9363L119.139 21.5636C119.317 21.8159 119.683 21.8159 119.861 21.5636L122.393 17.9363C122.477 17.8207 122.613 17.7471 122.749 17.7471H127.657C128.012 17.7471 128.222 18.1466 128.012 18.441L122.665 26.0845C122.561 26.2317 122.561 26.442 122.665 26.5892L128.222 34.5166C128.431 34.8109 128.222 35.2105 127.866 35.2105Z" fill="#262761"/>
<path d="M134.761 28.5763C134.416 28.5763 134.207 28.9548 134.385 29.2492C135.086 30.4372 136.373 31.026 138.246 31.026C139.543 31.026 140.59 30.6475 141.364 29.9115C141.5 29.7854 141.709 29.7643 141.866 29.859L145.319 31.8566C145.56 31.9933 145.612 32.3087 145.434 32.5189C143.739 34.6532 141.312 35.7046 138.172 35.7046C135.253 35.7046 132.92 34.832 131.151 33.0867C129.414 31.3414 128.546 29.144 128.546 26.484C128.546 23.824 129.414 21.6582 131.12 19.9129C132.857 18.1361 135.086 17.2529 137.796 17.2529C140.338 17.2529 142.421 18.1256 144.084 19.9129C145.79 21.6582 146.627 23.8556 146.627 26.484C146.627 27.0833 146.585 27.6616 146.491 28.2188C146.46 28.4291 146.271 28.5763 146.052 28.5763H134.761ZM140.82 24.6651C141.134 24.6651 141.353 24.3497 141.228 24.0659C140.621 22.615 139.47 21.9105 137.754 21.9105C136.038 21.9105 134.782 22.6255 134.175 24.0659C134.05 24.3497 134.28 24.6651 134.583 24.6651H140.82Z" fill="#262761"/>
<path d="M155.563 19.3558C156.484 18.1992 157.938 17.5264 159.529 17.4107C159.79 17.3897 160.01 17.5894 160.01 17.8523C160.01 18.9457 160.01 21.7108 160.01 22.8358C160.01 23.0881 159.79 23.2879 159.539 23.2669C158.43 23.1723 157.405 23.4036 156.421 23.9923C155.343 24.6232 154.789 25.7376 154.789 27.3147V34.769C154.789 35.0108 154.59 35.2105 154.349 35.2105H150.007C149.766 35.2105 149.567 35.0108 149.567 34.769V18.1782C149.567 17.9364 149.766 17.7366 150.007 17.7366H154.349C154.59 17.7366 154.789 17.9364 154.789 18.1782C154.789 18.42 154.789 18.7354 154.789 19.0614C154.789 19.4714 155.312 19.6712 155.563 19.3452V19.3558Z" fill="#262761"/>
<path d="M11.3529 5.96095L12.8283 7.23312C12.9225 7.31723 12.9853 7.44339 12.9853 7.56956V12.6372C12.9853 13.0052 12.5667 13.2049 12.2842 12.9842L8.77888 10.3031C8.64285 10.198 8.58007 10.0298 8.61146 9.87208L9.20789 6.72846C9.39624 5.72965 10.5891 5.3091 11.3634 5.97146L11.3529 5.96095Z" fill="url(#paint0_linear_121_11698)"/>
<path d="M22.0885 3.59594V49.5622C22.0885 50.1405 21.7746 50.6872 21.2618 51.0131L18.5622 52.7164C18.2483 52.9161 17.903 53.0107 17.5368 53.0107C17.1705 53.0107 16.8148 52.9161 16.5009 52.7164L13.8012 51.0131C13.2885 50.6872 12.9746 50.151 12.9746 49.5622V3.59594C12.9746 2.91255 13.3304 2.27121 13.9268 1.8822L16.2811 0.368211C16.6578 0.126394 17.0868 0.0107422 17.5263 0.0107422C17.9658 0.0107422 18.3948 0.136908 18.7715 0.368211L21.1258 1.8822C21.7327 2.27121 22.0885 2.91255 22.0885 3.59594Z" fill="url(#paint1_linear_121_11698)"/>
<path d="M8.51771 5.17254C8.46539 5.19357 8.41307 5.21459 8.36075 5.23562C8.33982 5.24614 8.3189 5.24614 8.29797 5.26716H8.27704C7.9736 5.43538 7.77479 5.58258 7.77479 5.58258L2.31275 8.91545C0.879227 9.78809 0.0107422 11.3441 0.0107422 13.0263V42.1285C0.0107422 43.1694 0.544389 44.1261 1.4338 44.6623L5.15887 46.9333C7.12604 48.1319 9.63732 46.7125 9.63732 44.3995V24.5389V10.9446C9.63732 7.49609 10.0977 6.25546 10.4744 5.81388C10.6523 5.60361 10.5895 5.25665 10.3384 5.141C9.68964 4.82558 9.01996 4.97278 8.52817 5.17254H8.51771Z" fill="url(#paint2_linear_121_11698)"/>
<path d="M23.7105 5.96095L22.2351 7.23312C22.1409 7.31723 22.0781 7.44339 22.0781 7.56956V12.6372C22.0781 13.0052 22.4967 13.2049 22.7792 12.9842L26.2845 10.3031C26.4205 10.198 26.4833 10.0298 26.4519 9.87208L25.8555 6.72846C25.6672 5.72965 24.4743 5.3091 23.7 5.97146L23.7105 5.96095Z" fill="url(#paint3_linear_121_11698)"/>
<path d="M26.5572 5.17254C26.6095 5.19357 26.6618 5.21459 26.7141 5.23562C26.735 5.24614 26.756 5.24614 26.7769 5.26716H26.7978C27.1013 5.43538 27.3001 5.58258 27.3001 5.58258L32.7621 8.91545C34.1956 9.78809 35.0641 11.3441 35.0641 13.0263V24.5389V42.1285C35.0641 43.1694 34.5305 44.1261 33.6411 44.6623L29.916 46.9333C27.9488 48.1319 25.4375 46.7125 25.4375 44.3995V24.5389V10.9446C25.4375 7.49609 24.9771 6.25546 24.6004 5.81388C24.4226 5.60361 24.4853 5.25665 24.7365 5.141C25.3852 4.82558 26.0549 4.97278 26.5467 5.17254H26.5572Z" fill="url(#paint4_linear_121_11698)"/>
<path opacity="0.24" d="M17.5368 0.494298V52.4955C17.5368 52.7899 17.2543 53.0001 16.9822 52.9265C16.8148 52.874 16.6578 52.8109 16.5009 52.7163L13.8012 51.013C13.2885 50.6871 12.9746 50.1509 12.9746 49.5621V3.59586C12.9746 2.91247 13.3304 2.27113 13.9268 1.88212L16.2811 0.368132C16.5009 0.231453 16.7415 0.126315 16.9822 0.0737463C17.2543 0.0106635 17.5263 0.220939 17.5263 0.504811L17.5368 0.494298Z" fill="white"/>
<path d="M50.4976 43.6432C50.3406 43.7063 50.0163 43.8009 49.6396 43.8009C49.221 43.8009 48.8653 43.6958 48.5932 43.4329C48.3525 43.2016 48.2061 42.8231 48.2061 42.3816C48.2061 41.5405 48.7816 40.9307 49.7233 40.9307C50.0477 40.9307 50.2988 41.0043 50.4244 41.0568L50.3406 41.3512C50.1942 41.2881 50.0058 41.225 49.7233 41.225C49.0431 41.225 48.6037 41.6456 48.6037 42.35C48.6037 43.0544 49.0327 43.4855 49.6814 43.4855C49.9221 43.4855 50.0791 43.454 50.1628 43.4119V42.5708H49.5977V42.2764H50.5185V43.6222L50.4976 43.6432Z" fill="black"/>
<path d="M58.4714 42.8752L58.1784 43.7584H57.8018L58.754 40.9512H59.1934L60.1456 43.7584H59.7585L59.455 42.8752H58.461H58.4714ZM59.3922 42.5913L59.1202 41.7818C59.0574 41.603 59.0155 41.4348 58.9737 41.2666C58.9318 41.4348 58.89 41.603 58.8377 41.7712L58.5656 42.5808H59.4027L59.3922 42.5913Z" fill="black"/>
<path d="M69.8663 42.5285C69.8454 42.1395 69.8245 41.6663 69.8245 41.3194H69.814C69.7198 41.6453 69.6047 42.0028 69.4582 42.3813L68.9665 43.7481H68.6944L68.2445 42.4128C68.1084 42.0133 68.0038 41.6558 67.9201 41.3194C67.9201 41.6663 67.8887 42.1395 67.8678 42.56L67.7945 43.7691H67.4492L67.648 40.9619H68.1084L68.5898 42.3182C68.7049 42.6651 68.799 42.9701 68.8723 43.2644H68.8827C68.956 42.9806 69.0502 42.6757 69.1757 42.3182L69.678 40.9619H70.1384L70.3163 43.7691H69.9605L69.8873 42.539L69.8663 42.5285Z" fill="black"/>
<path d="M79.2623 42.4441H78.1741V43.4535H79.3879V43.7584H77.8184V40.9512H79.3251V41.2561H78.1741V42.1392H79.2623V42.4441Z" fill="black"/>
<path d="M94.633 43.3271C94.7899 43.4323 95.0306 43.5059 95.2817 43.5059C95.6479 43.5059 95.8677 43.3061 95.8677 43.0222C95.8677 42.7594 95.7212 42.6122 95.3445 42.465C94.8841 42.3073 94.6016 42.0655 94.6016 41.6659C94.6016 41.2244 94.9573 40.8984 95.5014 40.8984C95.784 40.8984 95.9932 40.9615 96.1188 41.0351L96.0142 41.3295C95.92 41.2769 95.7316 41.1928 95.4805 41.1928C95.1038 41.1928 94.9573 41.4241 94.9573 41.6134C94.9573 41.8762 95.1248 42.0024 95.5119 42.1601C95.9828 42.3388 96.2234 42.5701 96.2234 42.9907C96.2234 43.4217 95.8991 43.8002 95.2399 43.8002C94.9678 43.8002 94.6748 43.7161 94.5283 43.6215L94.6225 43.3166L94.633 43.3271Z" fill="black"/>
<path d="M104.228 41.2668H103.381V40.9619H105.453V41.2668H104.595V43.7691H104.228V41.2668Z" fill="black"/>
<path d="M113.092 40.9512V42.6123C113.092 43.2432 113.374 43.506 113.741 43.506C114.159 43.506 114.421 43.2327 114.421 42.6123V40.9512H114.787V42.5913C114.787 43.4535 114.337 43.8109 113.73 43.8109C113.155 43.8109 112.726 43.485 112.726 42.6123V40.9617H113.092V40.9512Z" fill="black"/>
<path d="M122.383 40.9937C122.603 40.9622 122.864 40.9307 123.147 40.9307C123.67 40.9307 124.036 41.0463 124.277 41.2776C124.528 41.5089 124.674 41.8349 124.674 42.2869C124.674 42.739 124.538 43.1175 124.277 43.3804C124.015 43.6432 123.586 43.7799 123.042 43.7799C122.78 43.7799 122.571 43.7694 122.383 43.7484V40.9832V40.9937ZM122.739 43.475C122.833 43.496 122.958 43.496 123.105 43.496C123.879 43.496 124.298 43.065 124.298 42.308C124.298 41.6456 123.931 41.225 123.168 41.225C122.979 41.225 122.843 41.2461 122.749 41.2671V43.4855L122.739 43.475Z" fill="black"/>
<path d="M132.481 40.9512V43.7584H132.125V40.9512H132.481Z" fill="black"/>
<path d="M142.473 42.3285C142.473 43.2958 141.887 43.811 141.176 43.811C140.464 43.811 139.92 43.2327 139.92 42.3811C139.92 41.4874 140.475 40.9092 141.217 40.9092C141.96 40.9092 142.473 41.498 142.473 42.3285ZM140.307 42.3706C140.307 42.9699 140.631 43.5061 141.196 43.5061C141.762 43.5061 142.096 42.9804 142.096 42.3391C142.096 41.7818 141.803 41.1931 141.207 41.1931C140.611 41.1931 140.307 41.7503 140.307 42.3601V42.3706Z" fill="black"/>
<path d="M149.861 43.3271C150.017 43.4323 150.258 43.5059 150.509 43.5059C150.875 43.5059 151.095 43.3061 151.095 43.0222C151.095 42.7594 150.949 42.6122 150.572 42.465C150.112 42.3073 149.829 42.0655 149.829 41.6659C149.829 41.2244 150.185 40.8984 150.729 40.8984C151.012 40.8984 151.221 40.9615 151.346 41.0351L151.242 41.3295C151.148 41.2769 150.959 41.1928 150.708 41.1928C150.331 41.1928 150.185 41.4241 150.185 41.6134C150.185 41.8762 150.352 42.0024 150.739 42.1601C151.21 42.3388 151.451 42.5701 151.451 42.9907C151.451 43.4217 151.127 43.8002 150.467 43.8002C150.195 43.8002 149.902 43.7161 149.756 43.6215L149.85 43.3166L149.861 43.3271Z" fill="black"/>
</g>
<defs>
<linearGradient id="paint0_linear_121_11698" x1="8.601" y1="9.34639" x2="12.9748" y2="9.34639" gradientUnits="userSpaceOnUse">
<stop stop-color="#1E53A5"/>
<stop offset="1" stop-color="#4D5CA9"/>
</linearGradient>
<linearGradient id="paint1_linear_121_11698" x1="17.5368" y1="6.08771" x2="17.5368" y2="50.8028" gradientUnits="userSpaceOnUse">
<stop stop-color="#EE3664"/>
<stop offset="1" stop-color="#FAB082"/>
</linearGradient>
<linearGradient id="paint2_linear_121_11698" x1="0.000278516" y1="26.1686" x2="10.5686" y2="26.1686" gradientUnits="userSpaceOnUse">
<stop stop-color="#616BB2"/>
<stop offset="1" stop-color="#4D5CA9"/>
</linearGradient>
<linearGradient id="paint3_linear_121_11698" x1="26.4729" y1="9.34639" x2="22.0886" y2="9.34639" gradientUnits="userSpaceOnUse">
<stop stop-color="#1E53A5"/>
<stop offset="1" stop-color="#4D5CA9"/>
</linearGradient>
<linearGradient id="paint4_linear_121_11698" x1="35.0641" y1="26.1686" x2="24.4958" y2="26.1686" gradientUnits="userSpaceOnUse">
<stop stop-color="#616BB2"/>
<stop offset="1" stop-color="#4D5CA9"/>
</linearGradient>
<clipPath id="clip0_121_11698">
<rect width="160" height="53" fill="white"/>
</clipPath>
</defs>
</svg>
