<svg width="80" height="80" viewBox="0 0 80 80" fill="none" xmlns="http://www.w3.org/2000/svg">
<g clip-path="url(#clip0_263_54814)" filter="url(#filter0_d_263_54814)">
<g filter="url(#filter1_d_263_54814)">
<path d="M65.9236 46.7481C66.6777 43.4818 64.6494 40.1882 61.3933 39.3915L44.5749 35.2767C41.3187 34.48 38.0677 36.4821 37.3136 39.7483L34.2517 53.0104C33.4976 56.2767 35.5259 59.5703 38.782 60.367L47.1137 62.4054C49.0359 62.8757 50.6069 64.2624 51.412 66.0837C52.5574 68.6748 53.8472 71.21 54.0647 70.2679L54.7066 67.4874C55.0958 65.8019 56.7734 64.7688 58.4537 65.1799C60.134 65.591 61.8117 64.5579 62.2008 62.8723L65.9236 46.7481Z" fill="#1AADFA"/>
</g>
<g filter="url(#filter2_d_263_54814)">
<path fill-rule="evenodd" clip-rule="evenodd" d="M49.5023 56.2224C52.6499 56.9925 55.7925 55.0572 56.5215 51.8998L59.7906 37.7406L43.1641 33.6727C40.0165 32.9026 36.8739 34.8379 36.1449 37.9953L32.8758 52.1545L49.5023 56.2224Z" fill="white"/>
</g>
<g filter="url(#filter3_dd_263_54814)">
<path d="M18.4666 13.9141C19.2207 10.6478 22.4717 8.64582 25.7278 9.44247L58.2569 17.4011C61.5131 18.1977 63.5414 21.4914 62.7873 24.7576L56.5566 51.7441C55.8025 55.0103 52.5515 57.0124 49.2954 56.2157L31.4645 51.8532C29.5437 51.3832 27.5322 51.8875 26.0344 53.1596C22.3805 56.263 17.8323 59.7957 18.2137 58.1436L19.2053 53.8487C19.8082 51.2376 18.1867 48.6046 15.5837 47.9678C12.9807 47.3309 11.3592 44.6979 11.9621 42.0868L18.4666 13.9141Z" fill="white"/>
</g>
<g filter="url(#filter4_d_263_54814)">
<path d="M35.4257 36.5792C34.0727 36.2482 33.4349 35.9152 33.5122 35.5802L33.7442 34.5753C33.9274 33.7819 34.8037 32.9253 36.3731 32.0055C36.9585 31.6644 37.5153 31.2512 38.0435 30.7658C38.5888 30.2846 38.9165 29.8059 39.0264 29.3299C39.2299 28.4484 38.835 27.8862 37.8417 27.6431C36.8655 27.4043 35.8034 27.4983 34.6554 27.9252C34.1592 27.0961 33.8804 26.227 33.8189 25.3179C33.7813 25.0106 33.7869 24.7513 33.8357 24.5397C33.8887 24.3105 33.9803 24.1094 34.1107 23.9364C34.3536 23.5116 35.087 23.2347 36.3109 23.1057C37.552 22.981 38.8062 23.0737 40.0735 23.3837C41.9917 23.853 43.3326 24.6281 44.0963 25.709C44.86 26.7899 45.0729 28.062 44.7351 29.5253C44.5804 30.1952 44.2651 30.8165 43.789 31.3892C43.3342 31.9485 42.8186 32.4184 42.2423 32.7989C41.6871 33.1659 41.138 33.5065 40.595 33.8207C39.2718 34.6145 38.5472 35.2847 38.421 35.8312L38.2378 36.6246C38.189 36.8362 37.8355 36.9173 37.1774 36.8681C36.5234 36.8012 35.9395 36.7049 35.4257 36.5792ZM36.7099 42.537C36.6855 42.6428 35.9625 42.5218 34.5411 42.174C33.1367 41.8304 32.4447 41.6145 32.4651 41.5264L33.4236 37.3745C33.4562 37.2335 34.1747 37.3348 35.579 37.6784C37.0005 38.0261 37.7011 38.2441 37.6807 38.3323L36.7099 42.537Z" fill="#1AADFA"/>
<path d="M35.9936 31.3589L35.9953 31.3579C36.5327 31.0449 37.0473 30.6635 37.5391 30.2116L37.5445 30.2066L37.5501 30.2017C38.0345 29.7742 38.241 29.4206 38.3028 29.1529C38.3731 28.8487 38.3151 28.7263 38.2779 28.6734C38.2273 28.6013 38.0796 28.4681 37.6741 28.3689C36.8714 28.1725 35.9616 28.239 34.92 28.6263L34.3413 28.8415L34.0202 28.305C33.4699 27.3852 33.1521 26.4078 33.0793 25.3801C33.0377 25.0266 33.0388 24.6806 33.1122 24.3627C33.1833 24.0547 33.3079 23.769 33.4913 23.5155C33.739 23.1143 34.1538 22.8693 34.5748 22.7103C35.0234 22.541 35.5816 22.4305 36.2251 22.3627L36.2285 22.3624L36.2285 22.3624C37.5566 22.2289 38.8953 22.3287 40.2411 22.6579C42.2496 23.1493 43.7893 23.992 44.7 25.281L44.1223 25.6905L44.7 25.281C45.6064 26.5638 45.837 28.0633 45.4586 29.7023C45.2759 30.4935 44.9052 31.2168 44.3636 31.8693C43.8645 32.4825 43.2949 33.0023 42.655 33.4247L35.9936 31.3589ZM35.9936 31.3589C35.1799 31.8359 34.5139 32.3144 34.0181 32.7991C33.5274 33.2787 33.1565 33.81 33.0207 34.3983L32.7887 35.4032C32.7026 35.7761 32.8444 36.0961 33.0231 36.309C33.1164 36.4203 33.2271 36.5133 33.3418 36.5919C33.2938 36.602 33.2423 36.6164 33.19 36.6371C33.0627 36.6873 32.7831 36.8381 32.7001 37.1975L31.7415 41.3494C31.6788 41.6209 31.7775 41.8392 31.8522 41.9525C31.923 42.0597 32.0046 42.1269 32.047 42.1592C32.1353 42.2264 32.2277 42.2711 32.2852 42.2971C32.4123 42.3547 32.5764 42.4116 32.7564 42.4677C33.1254 42.5828 33.6679 42.7272 34.3735 42.8998C35.0882 43.0747 35.6462 43.1973 36.0358 43.2625C36.2252 43.2942 36.4054 43.3177 36.5542 43.3207C36.622 43.3221 36.7341 43.321 36.8527 43.2917L36.853 43.2917C36.9079 43.2781 37.3271 43.1748 37.4334 42.714L38.4042 38.5093C38.4677 38.2344 38.3659 38.0145 38.2909 37.9024C38.2197 37.7958 38.1379 37.7292 38.0957 37.6973C38.0442 37.6585 37.9913 37.6272 37.9446 37.6027M35.9936 31.3589L37.9446 37.6027M37.9446 37.6027C38.0013 37.5947 38.0563 37.5847 38.1093 37.5726C38.3623 37.5145 38.8379 37.3365 38.9613 36.8016L39.1445 36.0083C39.1572 35.9535 39.2381 35.7739 39.5652 35.4714C39.8753 35.1846 40.3388 34.849 40.976 34.4664C41.5305 34.1455 42.0901 33.7982 42.6548 33.4249L37.9446 37.6027Z" stroke="#9DDDFF" stroke-width="1.48975"/>
</g>
</g>
<defs>
<filter id="filter0_d_263_54814" x="2" y="4" width="72" height="72" filterUnits="userSpaceOnUse" color-interpolation-filters="sRGB">
<feFlood flood-opacity="0" result="BackgroundImageFix"/>
<feColorMatrix in="SourceAlpha" type="matrix" values="0 0 0 0 0 0 0 0 0 0 0 0 0 0 0 0 0 0 127 0" result="hardAlpha"/>
<feOffset dx="-2"/>
<feGaussianBlur stdDeviation="2"/>
<feComposite in2="hardAlpha" operator="out"/>
<feColorMatrix type="matrix" values="0 0 0 0 0 0 0 0 0 0 0 0 0 0 0 0 0 0 0.04 0"/>
<feBlend mode="normal" in2="BackgroundImageFix" result="effect1_dropShadow_263_54814"/>
<feBlend mode="normal" in="SourceGraphic" in2="effect1_dropShadow_263_54814" result="shape"/>
</filter>
<filter id="filter1_d_263_54814" x="34.0947" y="35.1016" width="33.4761" height="37.6018" filterUnits="userSpaceOnUse" color-interpolation-filters="sRGB">
<feFlood flood-opacity="0" result="BackgroundImageFix"/>
<feColorMatrix in="SourceAlpha" type="matrix" values="0 0 0 0 0 0 0 0 0 0 0 0 0 0 0 0 0 0 127 0" result="hardAlpha"/>
<feOffset dx="1.48975" dy="2.23462"/>
<feComposite in2="hardAlpha" operator="out"/>
<feColorMatrix type="matrix" values="0 0 0 0 0 0 0 0 0 0.423828 0 0 0 0 0.645833 0 0 0 1 0"/>
<feBlend mode="normal" in2="BackgroundImageFix" result="effect1_dropShadow_263_54814"/>
<feBlend mode="normal" in="SourceGraphic" in2="effect1_dropShadow_263_54814" result="shape"/>
</filter>
<filter id="filter2_d_263_54814" x="32.876" y="33.5039" width="29.5452" height="25.3156" filterUnits="userSpaceOnUse" color-interpolation-filters="sRGB">
<feFlood flood-opacity="0" result="BackgroundImageFix"/>
<feColorMatrix in="SourceAlpha" type="matrix" values="0 0 0 0 0 0 0 0 0 0 0 0 0 0 0 0 0 0 127 0" result="hardAlpha"/>
<feOffset dx="1.8209" dy="1.61858"/>
<feGaussianBlur stdDeviation="0.404645"/>
<feComposite in2="hardAlpha" operator="out"/>
<feColorMatrix type="matrix" values="0 0 0 0 0 0 0 0 0 0 0 0 0 0 0 0 0 0 0.25 0"/>
<feBlend mode="normal" in2="BackgroundImageFix" result="effect1_dropShadow_263_54814"/>
<feBlend mode="normal" in="SourceGraphic" in2="effect1_dropShadow_263_54814" result="shape"/>
</filter>
<filter id="filter3_dd_263_54814" x="11.8359" y="9.26758" width="52.5981" height="51.5315" filterUnits="userSpaceOnUse" color-interpolation-filters="sRGB">
<feFlood flood-opacity="0" result="BackgroundImageFix"/>
<feColorMatrix in="SourceAlpha" type="matrix" values="0 0 0 0 0 0 0 0 0 0 0 0 0 0 0 0 0 0 127 0" result="hardAlpha"/>
<feOffset dy="2.23462"/>
<feComposite in2="hardAlpha" operator="out"/>
<feColorMatrix type="matrix" values="0 0 0 0 0.683333 0 0 0 0 0.683333 0 0 0 0 0.683333 0 0 0 1 0"/>
<feBlend mode="normal" in2="BackgroundImageFix" result="effect1_dropShadow_263_54814"/>
<feColorMatrix in="SourceAlpha" type="matrix" values="0 0 0 0 0 0 0 0 0 0 0 0 0 0 0 0 0 0 127 0" result="hardAlpha"/>
<feOffset dx="1.48975" dy="0.744874"/>
<feComposite in2="hardAlpha" operator="out"/>
<feColorMatrix type="matrix" values="0 0 0 0 0.683333 0 0 0 0 0.683333 0 0 0 0 0.683333 0 0 0 1 0"/>
<feBlend mode="normal" in2="effect1_dropShadow_263_54814" result="effect2_dropShadow_263_54814"/>
<feBlend mode="normal" in="SourceGraphic" in2="effect2_dropShadow_263_54814" result="shape"/>
</filter>
<filter id="filter4_d_263_54814" x="30.9785" y="21.5576" width="15.3965" height="23.8203" filterUnits="userSpaceOnUse" color-interpolation-filters="sRGB">
<feFlood flood-opacity="0" result="BackgroundImageFix"/>
<feColorMatrix in="SourceAlpha" type="matrix" values="0 0 0 0 0 0 0 0 0 0 0 0 0 0 0 0 0 0 127 0" result="hardAlpha"/>
<feOffset dy="1.30953"/>
<feComposite in2="hardAlpha" operator="out"/>
<feColorMatrix type="matrix" values="0 0 0 0 0.679167 0 0 0 0 0.679167 0 0 0 0 0.679167 0 0 0 1 0"/>
<feBlend mode="normal" in2="BackgroundImageFix" result="effect1_dropShadow_263_54814"/>
<feBlend mode="normal" in="SourceGraphic" in2="effect1_dropShadow_263_54814" result="shape"/>
</filter>
<clipPath id="clip0_263_54814">
<rect width="64" height="64" fill="white" transform="translate(8 8)"/>
</clipPath>
</defs>
</svg>
