<svg width="689" height="100" viewBox="0 0 559 100" fill="none" xmlns="http://www.w3.org/2000/svg">
<path opacity="0.5" fill-rule="evenodd" clip-rule="evenodd" d="M185.586 7.5258C116.198 15.8583 49.6342 32.2612 0.407228 57.5583C41.7182 46.2928 112.958 34.9209 190.444 32.3589L185.586 7.5258ZM194.415 52.6596C132.748 49.3704 69.2878 52.963 6.30257 63.3089C55.4842 46.4741 123.955 38.969 191.707 38.8182L194.415 52.6596ZM458.175 19.2375C390.163 0.249464 284.963 -4.41915 185.586 7.5258L190.444 32.3589C277 29.5158 371.55 37.8458 440.019 69.9882C468.693 83.3994 489.984 65.8498 488.283 47.1901L487.375 42.5492C485.595 37.1277 482.056 32.2287 477.009 28.1998C471.963 24.171 465.532 21.1111 458.175 19.2375ZM191.707 38.8182C255.776 38.7116 319.143 45.1952 365.023 56.6495C410.903 68.1039 383.89 101.99 345.995 84.9154C301.602 64.9422 247.573 55.73 194.479 52.5626L191.707 38.8182Z" fill="#FFFA85"/>
</svg>
